<svg id="Layer_1" data-name="Layer 1" xmlns="http://www.w3.org/2000/svg" xmlns:xlink="http://www.w3.org/1999/xlink" viewBox="0 0 263.94 446.83"><defs><clipPath id="clip-path" transform="translate(-216.73 -1.01)"><polygon points="284.31 153.99 304.87 95.16 322.78 95.16 339.45 154.35 284.31 153.99" style="fill:#5d9bb8"/></clipPath></defs><title>Disney_castle</title><rect x="25.5" y="233.7" width="217.19" height="42.57" style="fill:#d3ceba"/><rect x="65.45" y="153.25" width="129.63" height="126.43" style="fill:#f9ece1"/><rect x="65.45" y="152.82" width="129.63" height="8.51" style="fill:#5d9bb8"/><rect x="135.16" y="90.9" width="25.5" height="184.52" style="fill:#e8e3d9"/><polygon points="135.16 212.1 160.23 212.1 168.52 220.77 128.78 220.77 135.16 212.1" style="fill:#f4f0eb"/><polygon points="161.29 142.99 136.22 142.99 127.93 134.32 167.67 134.32 161.29 142.99" style="fill:#f4f0eb"/><polygon points="127.08 83.21 168.31 83.21 167.46 94.52 160.66 105.83 135.16 105.83 127.08 96.78 127.08 83.21" style="fill:#f4f0eb"/><rect x="127.08" y="83.21" width="40.38" height="7.69" style="fill:#e8e3d9"/><polygon points="134.31 83.21 144.08 0 157.26 83.21 134.31 83.21" style="fill:#ffda50"/><rect x="20.83" y="286.91" width="229.09" height="65.98" style="fill:#e0dcc7"/><rect x="6.38" y="275.84" width="252.46" height="11.07" style="fill:#5694af"/><rect x="102.56" y="271.84" width="55.65" height="79.94" style="fill:#ece8d3"/><polygon points="105.83 271.84 116.03 201.36 141.96 201.36 154.28 271.84 105.83 271.84" style="fill:#6aa6c9"/><path d="M362.71,327c-.13-6.21-7-11.22-15.48-11.22s-15.36,5-15.48,11.22h0v26.52h31V327Z" transform="translate(-216.73 -1.01)" style="fill:#4d4b42"/><path d="M365.48,325.06c-.15-6.66-8.36-12-18.48-12s-18.34,5.37-18.48,12h0v28.41h37V325.06Z" transform="translate(-216.73 -1.01)" style="fill:#4d4b42;opacity:0.5"/><polygon points="113.06 260.79 113.06 292.57 144.51 292.57 144.51 260.79 129.63 210.11 113.06 260.79" style="fill:#d9d4c0"/><ellipse cx="128.57" cy="255.95" rx="8.5" ry="9.21" style="fill:#dcf0ef"/><polygon points="116.03 179.7 116.03 179.7 116.03 179.7 116.03 179.7 116.03 179.7" style="fill:#eadaa8"/><rect x="116.03" y="173.25" width="3.83" height="28.1" style="fill:#ffda50"/><rect x="116.03" y="193.98" width="25.93" height="7.37" style="fill:#ffda50"/><rect x="137.71" y="173.25" width="3.83" height="28.1" style="fill:#ffda50"/><polygon points="105.83 261.88 103.62 233.6 101.16 261.88 101.16 352 105.83 352 105.83 261.88" style="fill:#d9d4c0"/><polygon points="160.66 261.88 158.44 233.6 155.98 261.88 155.98 352 160.66 352 160.66 261.88" style="fill:#d9d4c0"/><polygon points="105.22 143.05 107.94 153.34 124.61 153.34 127.51 143.05 105.22 143.05" style="fill:#d9d4c0"/><polygon points="106.49 123.6 106.49 123.6 106.49 123.6 106.49 123.6 106.49 123.6" style="fill:#ece8d3"/><rect x="107.94" y="129.32" width="16.67" height="13.73" style="fill:#ece8d3"/><rect x="107.94" y="107.97" width="16.67" height="15.63" style="fill:#ece8d3"/><polygon points="104.13 133.13 127.51 133.13 124.61 123.6 107.75 123.98 104.13 133.13" style="fill:#6aa6c9"/><polygon points="107.94 107.97 124.61 107.97 116.27 46.19 107.94 107.97" style="fill:#6aa6c9"/><rect x="115.91" y="29.8" width="0.54" height="17.92" style="fill:#eadaa8"/><polygon points="116.45 29.8 125.69 29.8 116.45 37.42 116.45 29.8" style="fill:#ffda50"/><rect x="110.29" y="111.4" width="4.53" height="4.58" style="fill:#4d4b42;opacity:0.5"/><rect x="117" y="111.4" width="4.53" height="4.58" style="fill:#4d4b42;opacity:0.5"/><rect x="110.29" y="135.8" width="4.53" height="4.58" style="fill:#4d4b42;opacity:0.5"/><rect x="117" y="135.8" width="4.53" height="4.58" style="fill:#4d4b42;opacity:0.5"/><rect x="176.38" y="280.17" width="39.1" height="71.87" style="fill:#ece8d3"/><polygon points="170.01 270.65 176.38 280.17 215.49 280.17 222.29 270.65 170.01 270.65" style="fill:#d9d4c0"/><polygon points="172.98 252.69 172.98 252.69 172.98 252.69 172.98 252.69 172.98 252.69" style="fill:#ece8d3"/><rect x="176.38" y="257.97" width="39.1" height="12.68" style="fill:#ece8d3"/><rect x="176.38" y="238.24" width="39.1" height="14.44" style="fill:#ece8d3"/><polygon points="167.46 261.49 222.29 261.49 215.49 252.69 175.96 253.04 167.46 261.49" style="fill:#6aa6c9"/><polygon points="176.38 238.24 215.49 238.24 195.94 181.17 176.38 238.24" style="fill:#6aa6c9"/><rect x="195.09" y="166.02" width="1.28" height="16.56" style="fill:#eadaa8"/><polygon points="196.36 166.02 218.04 166.02 196.36 173.06 196.36 166.02" style="fill:#ffda50"/><rect x="181.91" y="241.41" width="10.63" height="4.23" style="fill:#4d4b42;opacity:0.5"/><rect x="197.64" y="241.41" width="10.63" height="4.23" style="fill:#4d4b42;opacity:0.5"/><rect x="181.91" y="263.96" width="10.63" height="4.23" style="fill:#4d4b42;opacity:0.5"/><rect x="197.64" y="263.96" width="10.63" height="4.23" style="fill:#4d4b42;opacity:0.5"/><rect x="230.85" y="294.67" width="28.19" height="58.22" style="fill:#ece8d3"/><polygon points="226.25 286.96 230.85 294.67 259.04 294.67 263.94 286.96 226.25 286.96" style="fill:#d9d4c0"/><polygon points="228.4 272.41 228.4 272.41 228.4 272.41 228.4 272.41 228.4 272.41" style="fill:#ece8d3"/><rect x="230.85" y="276.69" width="28.19" height="10.27" style="fill:#ece8d3"/><rect x="230.85" y="260.71" width="28.19" height="11.7" style="fill:#ece8d3"/><polygon points="224.41 279.54 263.94 279.54 259.04 272.41 230.54 272.69 224.41 279.54" style="fill:#6aa6c9"/><polygon points="230.85 260.71 259.04 260.71 244.94 214.47 230.85 260.71" style="fill:#6aa6c9"/><rect x="244.33" y="202.2" width="0.92" height="13.41" style="fill:#eadaa8"/><polygon points="245.25 202.2 260.88 202.2 245.25 207.91 245.25 202.2" style="fill:#ffda50"/><rect x="234.83" y="263.28" width="7.66" height="3.42" style="fill:#4d4b42;opacity:0.5"/><rect x="246.17" y="263.28" width="7.66" height="3.42" style="fill:#4d4b42;opacity:0.5"/><rect x="234.83" y="281.54" width="7.66" height="3.42" style="fill:#4d4b42;opacity:0.5"/><rect x="246.17" y="281.54" width="7.66" height="3.42" style="fill:#4d4b42;opacity:0.5"/><rect x="6.43" y="294.67" width="28.19" height="58.22" style="fill:#ece8d3"/><polygon points="1.84 286.96 6.43 294.67 34.63 294.67 39.53 286.96 1.84 286.96" style="fill:#d9d4c0"/><polygon points="3.98 272.41 3.98 272.41 3.98 272.41 3.98 272.41 3.98 272.41" style="fill:#ece8d3"/><rect x="6.43" y="276.69" width="28.19" height="10.27" style="fill:#ece8d3"/><rect x="6.43" y="260.71" width="28.19" height="11.7" style="fill:#ece8d3"/><polygon points="0 279.54 39.53 279.54 34.63 272.41 6.13 272.69 0 279.54" style="fill:#6aa6c9"/><polygon points="6.43 260.71 34.63 260.71 20.53 214.47 6.43 260.71" style="fill:#6aa6c9"/><rect x="19.92" y="202.2" width="0.92" height="13.41" style="fill:#eadaa8"/><polygon points="20.84 202.2 36.46 202.2 20.84 207.91 20.84 202.2" style="fill:#ffda50"/><rect x="10.42" y="263.28" width="7.66" height="3.42" style="fill:#4d4b42;opacity:0.5"/><rect x="21.76" y="263.28" width="7.66" height="3.42" style="fill:#4d4b42;opacity:0.5"/><rect x="10.42" y="281.54" width="7.66" height="3.42" style="fill:#4d4b42;opacity:0.5"/><rect x="21.76" y="281.54" width="7.66" height="3.42" style="fill:#4d4b42;opacity:0.5"/><polygon points="67.58 152.98 88.14 94.15 106.06 94.15 122.72 153.34 67.58 152.98" style="fill:#5d9bb8"/><g style="clip-path:url(#clip-path)"><rect x="65.23" y="140.33" width="62.85" height="12.94" style="fill:#e8e3d9"/></g><rect x="88.14" y="74.74" width="2.64" height="19.42" style="fill:#eadaa8"/><rect x="88.14" y="89.06" width="17.92" height="5.09" style="fill:#eadaa8"/><rect x="103.12" y="74.74" width="2.64" height="19.42" style="fill:#eadaa8"/><polygon points="91.67 115.44 91.67 142.98 102.24 142.98 102.24 115.44 97.41 99.74 91.67 115.44" style="fill:#f4f0eb"/><rect x="93.43" y="116.21" width="6.76" height="24.12" style="fill:#dcf0ef"/><path d="M344.27,285.31c0-3.51-2.31-6.33-5.12-6.33s-5.07,2.82-5.11,6.33h0v14.95h10.24V285.31Z" transform="translate(-216.73 -1.01)" style="fill:#4d4b42;opacity:0.5"/><path d="M357,285.31c0-3.51-2.31-6.33-5.11-6.33s-5.08,2.82-5.12,6.33h0v14.95H357V285.31Z" transform="translate(-216.73 -1.01)" style="fill:#4d4b42;opacity:0.5"/><rect x="113.06" y="295" width="31.45" height="5.11" style="fill:#bdb5a0"/><polygon points="59.68 180.12 62.25 187.82 78.01 187.82 80.75 180.12 59.68 180.12" style="fill:#d9d4c0"/><polygon points="60.88 165.56 60.88 165.56 60.88 165.56 60.88 165.56 60.88 165.56" style="fill:#ece8d3"/><rect x="62.25" y="169.84" width="15.76" height="10.27" style="fill:#ece8d3"/><rect x="62.25" y="153.86" width="15.76" height="11.7" style="fill:#ece8d3"/><polygon points="58.65 172.7 80.75 172.7 78.01 165.56 62.08 165.85 58.65 172.7" style="fill:#6aa6c9"/><polygon points="62.25 153.86 78.01 153.86 70.13 107.63 62.25 153.86" style="fill:#6aa6c9"/><rect x="69.79" y="95.35" width="0.51" height="13.41" style="fill:#eadaa8"/><polygon points="70.3 95.35 79.04 95.35 70.3 101.06 70.3 95.35" style="fill:#ffda50"/><rect x="64.48" y="156.43" width="4.28" height="3.42" style="fill:#4d4b42;opacity:0.5"/><rect x="70.82" y="156.43" width="4.28" height="3.42" style="fill:#4d4b42;opacity:0.5"/><rect x="64.48" y="174.69" width="4.28" height="3.42" style="fill:#4d4b42;opacity:0.5"/><rect x="70.82" y="174.69" width="4.28" height="3.42" style="fill:#4d4b42;opacity:0.5"/><polygon points="172.37 145.21 175.09 152.92 191.76 152.92 194.66 145.21 172.37 145.21" style="fill:#d9d4c0"/><polygon points="173.64 130.66 173.64 130.66 173.64 130.66 173.64 130.66 173.64 130.66" style="fill:#ece8d3"/><rect x="175.09" y="134.94" width="16.67" height="10.27" style="fill:#ece8d3"/><rect x="175.09" y="118.95" width="16.67" height="11.7" style="fill:#ece8d3"/><polygon points="171.28 137.79 194.66 137.79 191.76 130.66 174.91 130.94 171.28 137.79" style="fill:#6aa6c9"/><polygon points="175.09 118.95 191.76 118.95 183.43 72.72 175.09 118.95" style="fill:#6aa6c9"/><rect x="183.06" y="60.45" width="0.54" height="13.41" style="fill:#eadaa8"/><polygon points="183.61 60.45 192.85 60.45 183.61 66.16 183.61 60.45" style="fill:#ffda50"/><rect x="177.45" y="121.52" width="4.53" height="3.42" style="fill:#4d4b42;opacity:0.5"/><rect x="184.15" y="121.52" width="4.53" height="3.42" style="fill:#4d4b42;opacity:0.5"/><rect x="177.45" y="139.79" width="4.53" height="3.42" style="fill:#4d4b42;opacity:0.5"/><rect x="184.15" y="139.79" width="4.53" height="3.42" style="fill:#4d4b42;opacity:0.5"/><rect x="164.06" y="165.85" width="6.48" height="3.95" style="fill:#4d4b42;opacity:0.5"/><rect x="171.28" y="165.85" width="6.48" height="3.95" style="fill:#4d4b42;opacity:0.5"/><rect x="178.41" y="165.85" width="6.48" height="3.95" style="fill:#4d4b42;opacity:0.5"/><rect x="185.63" y="165.85" width="6.48" height="3.95" style="fill:#4d4b42;opacity:0.5"/><rect x="103.71" y="165.85" width="6.48" height="3.95" style="fill:#4d4b42;opacity:0.5"/><rect x="110.93" y="165.85" width="6.48" height="3.95" style="fill:#4d4b42;opacity:0.5"/><rect x="118.06" y="165.85" width="6.48" height="3.95" style="fill:#4d4b42;opacity:0.5"/><rect x="125.28" y="165.85" width="6.48" height="3.95" style="fill:#4d4b42;opacity:0.5"/><rect x="70.55" y="165.85" width="6.48" height="3.95" style="fill:#4d4b42;opacity:0.5"/><rect x="77.78" y="165.85" width="6.48" height="3.95" style="fill:#4d4b42;opacity:0.5"/><rect x="84.91" y="165.85" width="6.48" height="3.95" style="fill:#4d4b42;opacity:0.5"/><rect x="92.13" y="165.85" width="6.48" height="3.95" style="fill:#4d4b42;opacity:0.5"/><rect x="48.45" y="281.02" width="39.1" height="71.87" style="fill:#ece8d3"/><polygon points="42.08 271.51 48.45 281.02 87.56 281.02 94.36 271.51 42.08 271.51" style="fill:#d9d4c0"/><polygon points="45.05 253.54 45.05 253.54 45.05 253.54 45.05 253.54 45.05 253.54" style="fill:#ece8d3"/><rect x="48.45" y="258.82" width="39.1" height="12.68" style="fill:#ece8d3"/><rect x="48.45" y="239.09" width="39.1" height="14.44" style="fill:#ece8d3"/><polygon points="39.53 262.35 94.36 262.35 87.56 253.54 48.03 253.89 39.53 262.35" style="fill:#6aa6c9"/><polygon points="48.45 239.09 87.56 239.09 68 182.02 48.45 239.09" style="fill:#6aa6c9"/><rect x="67.15" y="166.87" width="1.28" height="16.56" style="fill:#eadaa8"/><polygon points="68.43 166.87 90.11 166.87 68.43 173.91 68.43 166.87" style="fill:#ffda50"/><rect x="53.98" y="242.26" width="10.63" height="4.23" style="fill:#4d4b42;opacity:0.5"/><rect x="69.7" y="242.26" width="10.63" height="4.23" style="fill:#4d4b42;opacity:0.5"/><rect x="53.98" y="264.81" width="10.63" height="4.23" style="fill:#4d4b42;opacity:0.5"/><rect x="69.7" y="264.81" width="10.63" height="4.23" style="fill:#4d4b42;opacity:0.5"/><path d="M329,353.68S378.46,384,366.11,411c-10.52,22.94-77.25,36.88-77.25,36.88l148.56-2S493,390.74,365,353.68Z" transform="translate(-216.73 -1.01)" style="fill:#b5b5b5;opacity:0.4"/></svg>